<svg width="140" height="28" viewBox="0 0 140 28" fill="none" xmlns="http://www.w3.org/2000/svg">
<path d="M135.74 2.29492L138.147 9.05814H138.174V2.29492H140V12.1701H137.732L135.298 5.2547H135.27V12.1701H133.444V2.29492H135.74Z" fill="black"/>
<path d="M129.975 12.1701V2.29492H131.967V12.1701H129.975Z" fill="black"/>
<path d="M126.578 5.22706C126.578 5.04265 126.555 4.85363 126.508 4.66C126.472 4.46637 126.407 4.29118 126.315 4.13443C126.223 3.96847 126.103 3.83477 125.955 3.73334C125.817 3.6227 125.646 3.56737 125.443 3.56737C124.964 3.56737 124.618 3.83477 124.406 4.36956C124.194 4.90434 124.088 5.78951 124.088 7.02506C124.088 7.61517 124.106 8.14995 124.143 8.62942C124.18 9.10888 124.245 9.5192 124.337 9.86035C124.438 10.1923 124.577 10.4505 124.752 10.6349C124.936 10.8101 125.171 10.8977 125.457 10.8977C125.577 10.8977 125.706 10.8654 125.845 10.8008C125.992 10.7363 126.126 10.6395 126.246 10.5104C126.375 10.3813 126.481 10.22 126.564 10.0263C126.647 9.82347 126.688 9.58835 126.688 9.32095V8.31131H125.374V6.84526H128.597V12.1701H127.131V11.2573H127.103C126.863 11.6445 126.573 11.9211 126.232 12.0871C125.9 12.2438 125.499 12.3222 125.029 12.3222C124.42 12.3222 123.922 12.2162 123.535 12.0041C123.157 11.792 122.857 11.4647 122.636 11.0221C122.424 10.5796 122.281 10.0355 122.207 9.39011C122.133 8.73545 122.096 7.97938 122.096 7.12187C122.096 6.29203 122.147 5.56361 122.249 4.93662C122.359 4.30962 122.544 3.78867 122.802 3.37374C123.06 2.9496 123.401 2.6315 123.825 2.41942C124.249 2.20735 124.78 2.10132 125.416 2.10132C126.504 2.10132 127.288 2.37332 127.767 2.91733C128.246 3.45212 128.486 4.22203 128.486 5.22706H126.578Z" fill="black"/>
<path d="M118.724 12.1701V2.29492H120.716V12.1701H118.724Z" fill="black"/>
<path d="M110.942 2.29492H114.621C115.451 2.29492 116.097 2.50699 116.558 2.93113C117.019 3.34606 117.249 3.98227 117.249 4.83977C117.249 5.50365 117.115 6.04766 116.848 6.4718C116.581 6.88672 116.166 7.15412 115.603 7.27398V7.30164C116.101 7.37541 116.465 7.53677 116.696 7.78572C116.926 8.03467 117.069 8.43576 117.125 8.98899C117.143 9.1734 117.157 9.37625 117.166 9.59754C117.175 9.80961 117.185 10.0493 117.194 10.3167C117.212 10.8423 117.24 11.2434 117.277 11.52C117.332 11.7966 117.452 11.9856 117.636 12.0871V12.1701H115.479C115.377 12.0317 115.313 11.875 115.285 11.6998C115.258 11.5154 115.239 11.3264 115.23 11.1328L115.175 9.23794C115.156 8.85068 115.059 8.54641 114.884 8.32512C114.709 8.10382 114.414 7.99318 113.999 7.99318H112.934V12.1701H110.942V2.29492ZM112.934 6.61011H113.764C114.243 6.61011 114.612 6.49946 114.87 6.27817C115.128 6.04766 115.258 5.66501 115.258 5.13022C115.258 4.21739 114.797 3.76098 113.874 3.76098H112.934V6.61011Z" fill="black"/>
<path d="M105.041 7.23252C105.041 7.89639 105.055 8.46345 105.083 8.93369C105.12 9.39472 105.184 9.77276 105.276 10.0678C105.378 10.3536 105.516 10.5657 105.691 10.704C105.876 10.8331 106.115 10.8977 106.41 10.8977C106.705 10.8977 106.941 10.8331 107.116 10.704C107.3 10.5657 107.439 10.3536 107.531 10.0678C107.632 9.77276 107.697 9.39472 107.724 8.93369C107.761 8.46345 107.78 7.89639 107.78 7.23252C107.78 6.56864 107.761 6.00619 107.724 5.54517C107.697 5.08414 107.632 4.7061 107.531 4.41105C107.439 4.11599 107.3 3.90392 107.116 3.77484C106.941 3.63653 106.705 3.56737 106.41 3.56737C106.115 3.56737 105.876 3.63653 105.691 3.77484C105.516 3.90392 105.378 4.11599 105.276 4.41105C105.184 4.7061 105.12 5.08414 105.083 5.54517C105.055 6.00619 105.041 6.56864 105.041 7.23252ZM103.05 7.23252C103.05 6.48566 103.082 5.79873 103.146 5.17174C103.22 4.53553 103.372 3.99152 103.603 3.53971C103.843 3.08791 104.184 2.73753 104.626 2.48858C105.069 2.23041 105.664 2.10132 106.41 2.10132C107.157 2.10132 107.752 2.23041 108.195 2.48858C108.637 2.73753 108.974 3.08791 109.204 3.53971C109.444 3.99152 109.596 4.53553 109.661 5.17174C109.734 5.79873 109.771 6.48566 109.771 7.23252C109.771 7.9886 109.734 8.68013 109.661 9.30712C109.596 9.93412 109.444 10.4735 109.204 10.9253C108.974 11.3771 108.637 11.7229 108.195 11.9626C107.752 12.2024 107.157 12.3222 106.41 12.3222C105.664 12.3222 105.069 12.2024 104.626 11.9626C104.184 11.7229 103.843 11.3771 103.603 10.9253C103.372 10.4735 103.22 9.93412 103.146 9.30712C103.082 8.68013 103.05 7.9886 103.05 7.23252Z" fill="black"/>
<path d="M94.4975 2.29492V6.25051H94.5251L97.0423 2.29492H99.1999L96.5168 6.52712L99.5042 12.1701H97.2636L95.2305 8.11766L94.4975 9.23794V12.1701H92.5059V2.29492H94.4975Z" fill="black"/>
<path d="M84.8206 2.29492H88.4995C89.3294 2.29492 89.9748 2.50699 90.4358 2.93113C90.8969 3.34606 91.1274 3.98227 91.1274 4.83977C91.1274 5.50365 90.9937 6.04766 90.7263 6.4718C90.4589 6.88672 90.044 7.15412 89.4815 7.27398V7.30164C89.9794 7.37541 90.3436 7.53677 90.5741 7.78572C90.8046 8.03467 90.9476 8.43576 91.0029 8.98899C91.0213 9.1734 91.0352 9.37625 91.0444 9.59754C91.0536 9.80961 91.0628 10.0493 91.072 10.3167C91.0905 10.8423 91.1181 11.2434 91.155 11.52C91.2103 11.7966 91.3302 11.9856 91.5146 12.0871V12.1701H89.357C89.2556 12.0317 89.1911 11.875 89.1634 11.6998C89.1357 11.5154 89.1173 11.3264 89.1081 11.1328L89.0528 9.23794C89.0343 8.85068 88.9375 8.54641 88.7623 8.32512C88.5871 8.10382 88.2921 7.99318 87.8771 7.99318H86.8122V12.1701H84.8206V2.29492ZM86.8122 6.61011H87.642C88.1215 6.61011 88.4903 6.49946 88.7485 6.27817C89.0067 6.04766 89.1357 5.66501 89.1357 5.13022C89.1357 4.21739 88.6747 3.76098 87.7527 3.76098H86.8122V6.61011Z" fill="black"/>
<path d="M81.2569 8.44959L80.3026 4.00993H80.275L79.3206 8.44959H81.2569ZM81.5197 2.29492L84.1337 12.1701H82.0591L81.6027 10.0816H78.9749L78.5185 12.1701H76.4438L79.0579 2.29492H81.5197Z" fill="black"/>
<path d="M72.4682 6.76224H73.3534C73.7498 6.76224 74.0679 6.64238 74.3077 6.40265C74.5566 6.16291 74.6811 5.78948 74.6811 5.28236C74.6811 4.78445 74.5751 4.40641 74.363 4.14824C74.1509 3.89006 73.7959 3.76098 73.298 3.76098H72.4682V6.76224ZM70.4766 2.29492H73.9619C74.469 2.29492 74.8932 2.38252 75.2343 2.55771C75.5847 2.72367 75.8659 2.94497 76.078 3.22158C76.2901 3.49819 76.4422 3.8163 76.5344 4.1759C76.6266 4.52628 76.6727 4.88588 76.6727 5.2547C76.6727 5.76182 76.5944 6.20441 76.4376 6.58245C76.2901 6.96049 76.078 7.26937 75.8014 7.5091C75.534 7.74884 75.2067 7.92864 74.8194 8.0485C74.4321 8.16837 74.0034 8.2283 73.5332 8.2283H72.4682V12.1701H70.4766V2.29492Z" fill="black"/>
<path d="M64.9091 9.08583V9.37628C64.9091 9.60679 64.9275 9.81886 64.9644 10.0125C65.0013 10.1969 65.0705 10.3536 65.1719 10.4827C65.2733 10.6118 65.407 10.7132 65.573 10.787C65.7482 10.8608 65.9648 10.8977 66.223 10.8977C66.5273 10.8977 66.7993 10.8008 67.039 10.6072C67.288 10.4044 67.4125 10.0955 67.4125 9.68055C67.4125 9.45926 67.3802 9.27024 67.3156 9.11349C67.2603 8.94753 67.1635 8.8 67.0252 8.67091C66.8869 8.54182 66.7025 8.42657 66.472 8.32514C66.2507 8.2145 65.9741 8.10385 65.6421 7.99321C65.1995 7.84568 64.8169 7.68432 64.4942 7.50913C64.1715 7.33394 63.8995 7.13109 63.6782 6.90058C63.4661 6.66085 63.3094 6.38884 63.2079 6.08457C63.1065 5.77107 63.0558 5.41147 63.0558 5.00577C63.0558 4.0284 63.3278 3.29998 63.8718 2.82052C64.4158 2.34105 65.1627 2.10132 66.1124 2.10132C66.555 2.10132 66.9607 2.15203 67.3295 2.25346C67.7075 2.34566 68.0302 2.50241 68.2976 2.7237C68.5742 2.93577 68.7863 3.21239 68.9338 3.55354C69.0906 3.88548 69.169 4.28657 69.169 4.75682V5.03343H67.2603C67.2603 4.56319 67.1773 4.20359 67.0114 3.95464C66.8454 3.69646 66.5688 3.56737 66.1815 3.56737C65.9602 3.56737 65.7758 3.59965 65.6283 3.66419C65.4808 3.72873 65.3609 3.81633 65.2687 3.92697C65.1857 4.0284 65.1258 4.14827 65.0889 4.28657C65.0612 4.42488 65.0474 4.5678 65.0474 4.71532C65.0474 5.0196 65.112 5.27777 65.241 5.48985C65.3701 5.6927 65.6467 5.88172 66.0709 6.0569L67.6061 6.72078C67.9841 6.88675 68.293 7.06194 68.5328 7.24635C68.7725 7.42154 68.9615 7.61517 69.0998 7.82724C69.2473 8.03009 69.3488 8.25599 69.4041 8.50494C69.4594 8.7539 69.4871 9.03051 69.4871 9.33479C69.4871 10.3767 69.1828 11.1374 68.5742 11.6169C67.9749 12.0871 67.1359 12.3222 66.0571 12.3222C64.9322 12.3222 64.1254 12.0779 63.6367 11.5892C63.1572 11.1005 62.9175 10.3998 62.9175 9.48692V9.08583H64.9091Z" fill="black"/>
<path d="M98.6243 15.7461L101.031 22.5093H101.058V15.7461H102.884V25.6212H100.616L98.1817 18.7059H98.154V25.6212H96.3284V15.7461H98.6243Z" fill="black"/>
<path d="M93.0275 18.6782C93.0275 18.4938 93.0045 18.3047 92.9584 18.1111C92.9215 17.9175 92.857 17.7423 92.7648 17.5855C92.6726 17.4196 92.5527 17.2859 92.4052 17.1845C92.2668 17.0738 92.0963 17.0185 91.8934 17.0185C91.414 17.0185 91.0682 17.2859 90.8561 17.8207C90.644 18.3555 90.538 19.2406 90.538 20.4762C90.538 21.0663 90.5565 21.6011 90.5933 22.0805C90.6302 22.56 90.6948 22.9703 90.787 23.3115C90.8884 23.6434 91.0267 23.9016 91.2019 24.086C91.3863 24.2612 91.6214 24.3488 91.9073 24.3488C92.0271 24.3488 92.1562 24.3165 92.2945 24.252C92.442 24.1874 92.5757 24.0906 92.6956 23.9615C92.8247 23.8324 92.9307 23.6711 93.0137 23.4774C93.0967 23.2746 93.1382 23.0395 93.1382 22.7721V21.7624H91.8243V20.2964H95.0468V25.6212H93.5808V24.7084H93.5531C93.3134 25.0956 93.0229 25.3722 92.6818 25.5382C92.3498 25.695 91.9487 25.7733 91.4785 25.7733C90.8699 25.7733 90.372 25.6673 89.9848 25.4552C89.6067 25.2432 89.3071 24.9158 89.0858 24.4732C88.8737 24.0307 88.7308 23.4867 88.657 22.8412C88.5833 22.1866 88.5464 21.4305 88.5464 20.573C88.5464 19.7431 88.5971 19.0147 88.6985 18.3877C88.8092 17.7607 88.9936 17.2398 89.2518 16.8249C89.5099 16.4007 89.8511 16.0826 90.2752 15.8705C90.6994 15.6585 91.2295 15.5524 91.8658 15.5524C92.9538 15.5524 93.7375 15.8244 94.217 16.3684C94.6964 16.9032 94.9362 17.6731 94.9362 18.6782H93.0275Z" fill="black"/>
<path d="M85.1741 25.6212V15.7461H87.1657V25.6212H85.1741Z" fill="black"/>
<path d="M79.5097 22.5369V22.8274C79.5097 23.0579 79.5281 23.27 79.565 23.4636C79.6019 23.648 79.671 23.8048 79.7725 23.9338C79.8739 24.0629 80.0076 24.1644 80.1736 24.2381C80.3488 24.3119 80.5654 24.3488 80.8236 24.3488C81.1279 24.3488 81.3999 24.252 81.6396 24.0583C81.8886 23.8555 82.0131 23.5466 82.0131 23.1317C82.0131 22.9104 81.9808 22.7214 81.9162 22.5646C81.8609 22.3986 81.7641 22.2511 81.6258 22.122C81.4875 21.9929 81.3031 21.8777 81.0726 21.7763C80.8513 21.6656 80.5747 21.555 80.2427 21.4443C79.8001 21.2968 79.4175 21.1354 79.0948 20.9602C78.7721 20.7851 78.5 20.5822 78.2788 20.3517C78.0667 20.112 77.9099 19.84 77.8085 19.5357C77.7071 19.2222 77.6564 18.8626 77.6564 18.4569C77.6564 17.4795 77.9284 16.7511 78.4724 16.2716C79.0164 15.7922 79.7633 15.5524 80.713 15.5524C81.1555 15.5524 81.5612 15.6031 81.9301 15.7046C82.3081 15.7968 82.6308 15.9535 82.8982 16.1748C83.1748 16.3869 83.3869 16.6635 83.5344 17.0047C83.6912 17.3366 83.7696 17.7377 83.7696 18.2079V18.4845H81.8609C81.8609 18.0143 81.7779 17.6547 81.612 17.4057C81.446 17.1476 81.1694 17.0185 80.7821 17.0185C80.5608 17.0185 80.3764 17.0508 80.2289 17.1153C80.0814 17.1798 79.9615 17.2674 79.8693 17.3781C79.7863 17.4795 79.7264 17.5994 79.6895 17.7377C79.6618 17.876 79.648 18.0189 79.648 18.1664C79.648 18.4707 79.7125 18.7289 79.8416 18.941C79.9707 19.1438 80.2473 19.3328 80.6715 19.508L82.2067 20.1719C82.5847 20.3379 82.8936 20.513 83.1333 20.6975C83.3731 20.8726 83.5621 21.0663 83.7004 21.2783C83.8479 21.4812 83.9494 21.7071 84.0047 21.9561C84.06 22.205 84.0877 22.4816 84.0877 22.7859C84.0877 23.8278 83.7834 24.5885 83.1748 25.068C82.5755 25.5382 81.7364 25.7733 80.6576 25.7733C79.5327 25.7733 78.726 25.529 78.2373 25.0403C77.7578 24.5516 77.5181 23.8509 77.5181 22.938V22.5369H79.5097Z" fill="black"/>
<path d="M76.765 15.7461V17.3781H73.2382V19.7017H76.5576V21.3337H73.2382V23.9892H76.9033V25.6212H71.2466V15.7461H76.765Z" fill="black"/>
<path d="M65.3932 24.1552H66.2784C66.6288 24.1552 66.91 24.0952 67.1221 23.9754C67.3341 23.8555 67.5001 23.6573 67.62 23.3807C67.7491 23.104 67.8321 22.7398 67.8689 22.288C67.915 21.8362 67.9381 21.2738 67.9381 20.6007C67.9381 20.0382 67.9196 19.5449 67.8828 19.1208C67.8459 18.6966 67.7675 18.3463 67.6476 18.0697C67.537 17.7838 67.3664 17.5717 67.1359 17.4334C66.9146 17.2859 66.6149 17.2122 66.2369 17.2122H65.3932V24.1552ZM63.4016 15.7461H66.6657C67.3572 15.7461 67.915 15.8613 68.3392 16.0919C68.7633 16.3132 69.0906 16.6359 69.3212 17.06C69.5609 17.4749 69.7223 17.9775 69.8052 18.5676C69.8882 19.1577 69.9297 19.8169 69.9297 20.5454C69.9297 21.4121 69.8744 22.1682 69.7637 22.8136C69.6623 23.4498 69.4825 23.9754 69.2243 24.3903C68.9662 24.8052 68.6204 25.1141 68.187 25.317C67.7537 25.5198 67.2051 25.6212 66.5412 25.6212H63.4016V15.7461Z" fill="black"/>
<path d="M42.8254 27.658H38.4595V0.115173H42.8254C50.2034 0.115173 56.2081 6.29481 56.2081 13.8866C56.2081 21.4848 50.2099 27.658 42.8254 27.658Z" fill="#FF2B2B"/>
<path d="M26.9563 27.6642C22.0257 27.6642 18.0151 23.6536 18.0151 18.723V9.06262C18.0151 4.132 22.0257 0.121399 26.9563 0.121399C31.887 0.121399 35.8976 4.132 35.8976 9.06262V18.723C35.8976 23.6536 31.887 27.6642 26.9563 27.6642Z" fill="#FF2B2B"/>
<path fill-rule="evenodd" clip-rule="evenodd" d="M8.40066 6.78954C7.9586 6.34816 7.24189 6.34816 6.79984 6.78954C6.35778 7.23093 6.35778 7.94656 6.79983 8.38794L13.0093 14.588C15.9774 17.5516 15.9774 22.3565 13.0093 25.3201C10.0412 28.2837 5.22903 28.2837 2.26094 25.3201C-0.707138 22.3565 -0.707132 17.5516 2.26095 14.588L6.83472 19.1549C6.39266 19.5963 6.39267 20.3119 6.83472 20.7533C7.27677 21.1947 7.99349 21.1947 8.43554 20.7533C8.8776 20.3119 8.8776 19.5963 8.43554 19.1549L2.22606 12.9548C-0.742021 9.99121 -0.74202 5.18628 2.22606 2.22269C5.19414 -0.740897 10.0064 -0.740897 12.9744 2.22269C15.9425 5.18628 15.9425 9.99121 12.9744 12.9548L8.40066 8.38794C8.84271 7.94656 8.84271 7.23093 8.40066 6.78954Z" fill="#FF2B2B"/>
</svg>
